<svg width="272" height="118" viewBox="0 0 272 118" fill="none"
    xmlns="http://www.w3.org/2000/svg">
    <path d="M37.0106 30.8955C37.1161 31.9783 37.0211 32.9843 36.7258 33.9133C36.4879 34.7724 36.1771 35.5421 35.7932 36.2225C35.3519 36.9729 34.8756 37.6944 34.3644 38.3873L26.9191 36.2187C27.4303 35.5259 27.9066 34.8044 28.348 34.054C28.7318 33.3736 29.0427 32.6039 29.2805 31.7448C29.5759 30.8158 29.6708 29.8098 29.5653 28.7269C29.404 27.0708 28.8341 25.8402 27.8554 25.0353C26.9343 24.1605 25.7412 23.7944 24.2761 23.9371C23.5754 24.0053 22.9252 24.2616 22.3255 24.7058C21.7195 25.0863 21.2051 25.7473 20.7824 26.6887C20.4172 27.5602 20.1466 28.744 19.9708 30.2401C19.8587 31.73 19.9143 33.6215 20.1377 35.9147L21.2544 47.3804L34.6311 46.0776L34.8172 47.9886L21.4405 49.2914L25.3023 88.9438L31.1748 89.8186L31.2679 90.7741L12.1583 92.6353L12.0652 91.6798L17.6585 89.6882L13.7966 50.0358L8.06377 50.5942L7.87765 48.6832L13.6105 48.1249L12.4938 36.6591C12.1216 32.8372 12.9992 29.633 15.1265 27.0467C17.3113 24.3904 20.3146 22.8761 24.1365 22.5039C25.9201 22.3302 27.5723 22.4586 29.0932 22.8892C30.6079 23.2561 31.9183 23.8358 33.0243 24.6284C34.1941 25.4147 35.1214 26.3532 35.8064 27.4439C36.4913 28.5347 36.8927 29.6852 37.0106 30.8955Z" fill="#AEC5FF"/>
    <path d="M61.508 86.0335L67.3482 87.1029L67.4095 88.061L48.2486 89.2863L48.1873 88.3282L53.8437 86.5236L51.3318 47.2438L45.4917 46.1743L45.4304 45.2163L58.843 44.3586L59.5782 55.8551C60.2574 53.4388 61.1105 51.2359 62.1376 49.2463C63.0534 47.5203 64.2028 45.9398 65.5861 44.5046C66.9693 43.0694 68.6828 42.2864 70.7266 42.1557C71.4292 42.1108 72.1039 42.1318 72.7508 42.2187C73.3936 42.2417 73.9745 42.3007 74.4936 42.3958C75.0807 42.5506 75.6019 42.6776 76.0571 42.7768L73.6425 50.1459C73.247 49.9788 72.8176 49.7818 72.3542 49.5549C71.9587 49.3878 71.4695 49.2588 70.8865 49.1678C70.3633 49.0089 69.8142 48.9478 69.2394 48.9845C67.5788 49.0907 66.1384 49.6318 64.9182 50.6076C63.698 51.5835 62.7074 52.6409 61.9466 53.7797C61.0063 55.1225 60.2679 56.6126 59.7313 58.2502L61.508 86.0335Z" fill="#AEC5FF"/>
    <path d="M93.6076 84.4054L92.2831 45.0677L86.4779 43.8224L86.4456 42.8629L99.878 42.4106L101.283 84.147L107.088 85.3924L107.121 86.3518L87.9316 86.9979L87.8993 86.0384L93.6076 84.4054ZM99.9863 31.3607C100.027 32.5761 99.5531 33.7126 98.5642 34.7705C97.637 35.7623 96.5658 36.2786 95.3505 36.3195C94.1352 36.3605 92.9997 35.9184 91.9439 34.9934C90.95 34.0023 90.4326 32.8991 90.3917 31.6838C90.3508 30.4685 90.7939 29.3649 91.721 28.3732C92.71 27.3153 93.8121 26.7659 95.0274 26.725C96.2428 26.6841 97.3474 27.1592 98.3413 28.1503C99.397 29.0753 99.9453 30.1454 99.9863 31.3607Z" fill="#AEC5FF"/>
    <path d="M135.41 71.6363C136.498 71.6382 137.555 71.384 138.58 70.8738C139.605 70.2996 140.534 69.4052 141.368 68.1906C142.202 66.9761 142.845 65.4412 143.296 63.5859C143.812 61.6668 144.071 59.3953 144.076 56.7713C144.081 54.1473 143.828 51.9068 143.32 50.05C142.875 48.1292 142.238 46.5921 141.408 45.4387C140.578 44.2212 139.651 43.3236 138.628 42.7459C137.605 42.1681 136.55 41.8783 135.462 41.8764C134.374 41.8745 133.317 42.1607 132.292 42.7349C131.267 43.3091 130.338 44.2035 129.504 45.4181C128.67 46.5687 127.995 48.1035 127.48 50.0226C127.028 51.8778 126.801 54.1175 126.796 56.7415C126.791 59.3655 127.012 61.6378 127.456 63.5586C127.965 65.4155 128.634 66.9526 129.464 68.1701C130.294 69.3875 131.221 70.2851 132.244 70.8629C133.267 71.3766 134.322 71.6345 135.41 71.6363ZM137.266 108.696C139.634 108.7 141.779 108.351 143.7 107.651C145.621 107.014 147.223 106.121 148.505 104.971C149.851 103.821 150.877 102.479 151.584 100.944C152.29 99.4095 152.645 97.8101 152.648 96.1461C152.659 90.0661 149.624 87.0209 143.544 87.0104L128.184 86.9839C124.536 86.9776 121.849 86.237 120.124 84.762C118.462 83.2871 117.633 81.4617 117.637 79.2857C117.64 77.8137 117.994 76.5343 118.7 75.4475C119.47 74.2968 120.303 73.2743 121.201 72.3798C122.291 71.4217 123.508 70.5278 124.854 69.6981C123.575 68.8639 122.457 67.838 121.499 66.6203C120.605 65.5308 119.807 64.1854 119.106 62.5842C118.469 60.9831 118.152 59.0305 118.156 56.7265C118.16 54.4225 118.58 52.2793 119.415 50.2967C120.315 48.3143 121.534 46.5884 123.072 45.119C124.611 43.6497 126.437 42.5008 128.55 41.6725C130.663 40.8441 132.968 40.4321 135.464 40.4364C136.552 40.4383 137.608 40.5361 138.632 40.7299C139.655 40.9236 140.583 41.1492 141.415 41.4067C142.374 41.6643 143.27 41.9859 144.101 42.3713C144.614 41.6682 145.223 41.0292 145.928 40.4545C146.569 39.9436 147.37 39.4969 148.33 39.1146C149.291 38.7323 150.443 38.5422 151.787 38.5446C153.963 38.5483 155.659 38.9672 156.873 39.8013C158.152 40.5715 159.142 41.4373 159.845 42.3985C160.611 43.5518 161.121 44.8327 161.374 46.2411L154.172 47.6687C153.982 46.3884 153.696 45.2039 153.314 44.1152C152.995 43.2187 152.549 42.3859 151.974 41.6169C151.399 40.8479 150.696 40.4627 149.864 40.4612C149.16 40.46 148.52 40.6189 147.943 40.9379C147.367 41.2569 146.918 41.5762 146.598 41.8956C146.149 42.3428 145.796 42.8222 145.539 43.3338C147.969 44.81 149.757 46.7011 150.905 49.0071C152.117 51.3132 152.721 53.9062 152.716 56.7862C152.712 59.0902 152.26 61.2334 151.361 63.2159C150.525 65.1984 149.338 66.9244 147.8 68.3937C146.261 69.8631 144.435 71.0119 142.322 71.8403C140.209 72.6686 137.904 73.0807 135.408 73.0763C134.064 73.074 132.848 72.9759 131.76 72.782C130.673 72.5242 129.713 72.2345 128.882 71.9131C127.922 71.5914 127.059 71.1739 126.292 70.6606C125.395 71.2351 124.594 71.8417 123.889 72.4805C123.248 72.9914 122.671 73.5984 122.158 74.3015C121.708 75.0047 121.483 75.7083 121.482 76.4123C121.48 77.3723 121.927 78.1731 122.822 78.8146C123.717 79.3922 125.508 79.6833 128.196 79.6879L143.556 79.7144C147.396 79.721 150.498 80.9744 152.862 83.4745C155.29 85.9107 156.5 89.1768 156.493 93.2728C156.489 95.7048 156.005 97.9439 155.041 99.9903C154.142 102.101 152.859 103.923 151.192 105.456C149.525 107.053 147.507 108.297 145.138 109.189C142.768 110.081 140.143 110.525 137.263 110.52C133.679 110.513 130.544 110.092 127.857 109.255C125.235 108.483 123.061 107.391 121.335 105.98C119.609 104.633 118.3 103.031 117.407 101.173C116.579 99.3159 116.166 97.2992 116.17 95.1232C116.171 94.2912 116.269 93.5233 116.462 92.8197C116.655 92.18 116.88 91.6364 117.137 91.1888C117.393 90.6773 117.714 90.2298 118.099 89.8465L125.294 92.7389C125.101 93.1866 124.94 93.6663 124.811 94.1781C124.49 95.1375 124.328 96.0973 124.326 97.0573C124.321 100.449 125.436 103.235 127.672 105.415C129.972 107.595 133.17 108.689 137.266 108.696Z" fill="#AEC5FF"/>
    <path d="M187.667 72.7925C188.754 72.8432 189.821 72.6367 190.867 72.1729C191.917 71.6453 192.886 70.7935 193.774 69.6175C194.661 68.4416 195.372 66.9371 195.906 65.104C196.507 63.2099 196.869 60.9523 196.991 58.3312C197.113 55.71 196.962 53.4605 196.537 51.5827C196.179 49.6439 195.611 48.0797 194.833 46.8902C194.059 45.6368 193.174 44.6985 192.178 44.0755C191.182 43.4524 190.14 43.1155 189.053 43.0648C187.967 43.0141 186.898 43.2526 185.849 43.7803C184.799 44.308 183.83 45.1598 182.942 46.3357C182.058 47.4477 181.315 48.9507 180.714 50.8448C180.18 52.6779 179.852 54.905 179.73 57.5262C179.607 60.1473 179.725 62.4273 180.083 64.3661C180.508 66.2439 181.108 67.8096 181.882 69.063C182.657 70.3164 183.542 71.2547 184.538 71.8778C185.537 72.4369 186.58 72.7418 187.667 72.7925ZM187.859 109.898C190.224 110.008 192.382 109.756 194.333 109.143C196.281 108.593 197.921 107.772 199.253 106.681C200.649 105.593 201.735 104.298 202.509 102.797C203.284 101.295 203.71 99.7131 203.788 98.0509C204.071 91.9775 201.176 88.7992 195.103 88.516L179.759 87.8004C176.115 87.6305 173.464 86.7701 171.807 85.2192C170.213 83.6712 169.467 81.8105 169.569 79.6368C169.637 78.1664 170.048 76.9042 170.802 75.8502C171.623 74.7352 172.502 73.7511 173.439 72.8978C174.57 71.9895 175.827 71.1512 177.208 70.3827C175.968 69.4919 174.897 68.4169 173.995 67.1575C173.15 66.0289 172.414 64.6491 171.785 63.018C171.22 61.39 170.992 59.4252 171.099 57.1237C171.206 54.8222 171.722 52.6999 172.645 50.7568C173.633 48.8167 174.928 47.1472 176.531 45.7484C178.134 44.3495 180.009 43.2837 182.158 42.551C184.306 41.8183 186.627 41.5101 189.12 41.6264C190.207 41.6771 191.258 41.8222 192.272 42.0617C193.286 42.3011 194.202 42.5681 195.021 42.8626C195.968 43.1631 196.848 43.5245 197.662 43.9468C198.206 43.2674 198.843 42.6564 199.573 42.1139C200.236 41.6322 201.056 41.222 202.033 40.8831C203.01 40.5443 204.17 40.4061 205.512 40.4687C207.686 40.5701 209.361 41.0647 210.537 41.9524C211.779 42.7792 212.73 43.6885 213.389 44.6802C214.102 45.8668 214.554 47.1692 214.744 48.5876L207.485 49.6906C207.353 48.4031 207.12 47.207 206.787 46.1022C206.509 45.1923 206.1 44.3403 205.561 43.5463C205.021 42.7523 204.336 42.336 203.505 42.2972C202.802 42.2644 202.155 42.3944 201.565 42.6872C200.974 42.9801 200.512 43.2788 200.177 43.5836C199.709 44.0102 199.335 44.4733 199.055 44.9728C201.416 46.5565 203.118 48.526 204.162 50.8811C205.269 53.2393 205.756 55.8568 205.621 58.7337C205.514 61.0352 204.967 63.156 203.979 65.0961C203.056 67.0392 201.793 68.7101 200.19 70.109C198.587 71.5078 196.711 72.5736 194.563 73.3063C192.414 74.039 190.093 74.3472 187.6 74.231C186.257 74.1683 185.047 74.0158 183.969 73.7733C182.894 73.4669 181.949 73.1345 181.133 72.7761C180.189 72.4117 179.345 71.9559 178.602 71.4087C177.68 71.9423 176.852 72.5124 176.119 73.1189C175.456 73.6006 174.852 74.1811 174.308 74.8604C173.828 75.5428 173.571 76.2356 173.539 76.9388C173.494 77.8978 173.904 78.7178 174.769 79.3988C175.637 80.016 177.414 80.3871 180.099 80.5124L195.442 81.2279C199.278 81.4068 202.321 82.798 204.57 85.4016C206.886 87.9443 207.949 91.2614 207.758 95.3529C207.645 97.7823 207.061 99.9975 206.006 101.999C205.013 104.067 203.649 105.829 201.916 107.286C200.179 108.806 198.107 109.959 195.7 110.744C193.293 111.529 190.651 111.854 187.774 111.72C184.194 111.553 181.08 110.991 178.434 110.035C175.849 109.145 173.726 107.957 172.065 106.47C170.402 105.047 169.166 103.388 168.357 101.492C167.612 99.5994 167.291 97.5662 167.392 95.3926C167.431 94.5615 167.563 93.7988 167.787 93.1045C168.009 92.4741 168.258 91.9411 168.534 91.5055C168.814 91.006 169.155 90.5734 169.556 90.2077L176.614 93.42C176.401 93.8586 176.219 94.3306 176.068 94.8361C175.703 95.7801 175.499 96.7316 175.454 97.6906C175.296 101.079 176.285 103.912 178.421 106.19C180.621 108.471 183.767 109.707 187.859 109.898Z" fill="#AEC5FF"/>
    <path d="M243.956 46.7866C242.873 46.6877 241.723 46.9682 240.506 47.6283C239.358 48.2305 238.228 49.3484 237.115 50.9819C236.071 52.5576 235.102 54.7185 234.209 57.4646C233.379 60.2166 232.773 63.6958 232.389 67.9023C232.005 72.1088 231.971 75.6404 232.289 78.4971C232.67 81.3596 233.228 83.6921 233.964 85.4944C234.768 87.2388 235.678 88.5428 236.691 89.4066C237.774 90.2124 238.858 90.6648 239.941 90.7637C241.025 90.8626 242.14 90.611 243.288 90.0088C244.505 89.3487 245.635 88.2309 246.679 86.6552C247.792 85.0217 248.763 82.8289 249.593 80.077C250.486 77.3308 251.125 73.8545 251.509 69.648C251.893 65.4415 251.894 61.907 251.513 59.0444C251.196 56.1877 250.634 53.8872 249.83 52.1428C249.094 50.3405 248.185 49.0364 247.102 48.2306C246.088 47.3668 245.04 46.8855 243.956 46.7866ZM244.087 45.3526C246.445 45.5679 248.659 46.3162 250.727 47.5975C252.864 48.8209 254.669 50.528 256.139 52.7188C257.68 54.8517 258.794 57.4277 259.483 60.4468C260.241 63.408 260.451 66.7369 260.113 70.4335C259.776 74.1301 258.963 77.3978 257.676 80.2365C256.458 83.0173 254.896 85.3489 252.988 87.2313C251.151 89.0558 249.067 90.408 246.738 91.2878C244.478 92.1097 242.169 92.413 239.81 92.1977C237.388 91.9766 235.141 91.2572 233.067 90.0396C230.999 88.7583 229.194 87.0512 227.654 84.9183C226.183 82.7275 225.069 80.1515 224.311 77.1903C223.622 74.1712 223.447 70.8134 223.784 67.1168C224.122 63.4201 224.9 60.1814 226.117 57.4006C227.405 54.5619 228.967 52.2303 230.805 50.4058C232.712 48.5234 234.795 47.1713 237.056 46.3494C239.321 45.4637 241.665 45.1314 244.087 45.3526Z" fill="#AEC5FF"/>
</svg>
