<?xml version="1.0" standalone="no"?>
<!DOCTYPE svg PUBLIC "-//W3C//DTD SVG 20010904//EN"
 "http://www.w3.org/TR/2001/REC-SVG-20010904/DTD/svg10.dtd">
<svg version="1.0" xmlns="http://www.w3.org/2000/svg"
 width="412.000000pt" height="412.000000pt" viewBox="0 0 412.000000 412.000000"
 preserveAspectRatio="xMidYMid meet">
<metadata>
Created by potrace 1.11, written by Peter Selinger 2001-2013
</metadata>
<g transform="translate(0.000000,412.000000) scale(0.100000,-0.100000)"
fill="#000000" stroke="none">
<path d="M2179 4116 c-2 -2 -25 -6 -50 -9 -276 -33 -517 -238 -595 -506 -35
-121 -38 -159 -38 -578 l0 -373 -173 0 -173 0 0 -58 0 -58 163 1 c89 1 167 0
172 -2 7 -2 10 -387 10 -1196 l0 -1192 -172 -44 -173 -44 0 -28 0 -29 575 0
575 0 0 30 c0 17 -2 30 -5 30 -19 0 -331 84 -335 90 -4 6 -5 2312 -1 2370 1
13 51 15 401 15 316 0 400 2 401 12 1 7 2 32 3 56 l1 42 -405 5 -404 5 0 390
c1 215 4 435 8 490 13 199 70 361 151 433 106 93 270 81 367 -26 56 -62 70
-103 74 -212 3 -80 -1 -106 -22 -168 -26 -78 -72 -158 -135 -233 l-38 -46 215
-85 215 -86 20 21 c233 244 238 565 12 778 -100 94 -218 154 -373 190 -44 11
-263 23 -271 15z"/>
</g>
</svg>
